<svg id="Capa_1" enable-background="new 0 0 512 512" height="512" viewBox="0 0 512 512" width="512" xmlns="http://www.w3.org/2000/svg"><path d="m94.872 80.778c-8.108-1.694-16.056 3.507-17.75 11.616l-19.412 92.933c-1.694 8.109 3.507 16.056 11.616 17.75 1.035.216 2.065.32 3.082.32 6.952 0 13.19-4.861 14.668-11.936l19.411-92.933c1.695-8.109-3.506-16.056-11.615-17.75z" fill="#ff712f"/><path d="m158.817 43.43-99.028-25.722c-5.633-1.462-11.498-.645-16.515 2.304s-8.585 7.675-10.046 13.308l-10.539 40.616c-3.015 11.623 3.987 23.535 15.609 26.553l99.029 25.723c1.826.474 3.675.709 5.513.709 3.832 0 7.611-1.021 11.001-3.014 5.017-2.949 8.585-7.675 10.046-13.308l10.538-40.616c3.016-11.623-3.986-23.534-15.608-26.553z" fill="#a34f3e"/><path d="m476.09 373v56.38c0 2.76-2.23 5-5 5h-54.2v-51.86c0-8.28-6.71-15-15-15-8.28 0-15 6.72-15 15v51.86h-199.18c-2.76 0-5-2.24-5-5v-74.44h-85.9c-30.53 0-55.38-24.86-55.38-55.41v-56.61l30.96-30 30.96 30v50.07h309.29c1.36 0 2.67.56 3.61 1.54l48.86 51.09c7.08 7.41 10.98 17.13 10.98 27.38z" fill="#f6efea"/><path d="m476.09 373v56.38c0 2.76-2.23 5-5 5h-54.2v-51.86c0-8.28-6.71-15-15-15-8.28 0-15 6.72-15 15v51.86h-93.72v-141.39h119.47c1.36 0 2.67.56 3.61 1.54l48.86 51.09c7.08 7.41 10.98 17.13 10.98 27.38z" fill="#eee1dc"/><path d="m325.27 370.25-8.71 59.13h-46.78l-8.71-59.13c-.28-1.89.09-3.81 1.04-5.47l25.68-44.66c-9.97-2.42-17.38-11.4-17.38-22.13v-43.33h45.52v43.33c0 6.29-2.55 11.98-6.67 16.1-2.9 2.9-6.58 5.03-10.71 6.03l25.69 44.66c.95 1.66 1.31 3.58 1.03 5.47z" fill="#ff4949"/><path d="m325.27 370.25-8.71 59.13h-23.39v-174.72h22.76v43.33c0 6.29-2.55 11.98-6.67 16.1-2.9 2.9-6.58 5.03-10.71 6.03l25.69 44.66c.95 1.66 1.31 3.58 1.03 5.47z" fill="#e50048"/><path d="m103.35 214.371v28.55h-61.92v-28.55c0-17.08 13.89-30.98 30.96-30.98s30.96 13.9 30.96 30.98z" fill="#ffd1ae"/><path d="m512 459.63v.13c0 19.43-15.81 35.24-35.24 35.24h-441.52c-19.43 0-35.24-15.81-35.24-35.24v-.13c0-19.44 15.81-35.25 35.24-35.25h441.52c19.43 0 35.24 15.81 35.24 35.25z" fill="#424e53"/><path d="m512 459.63v.13c0 19.43-15.81 35.24-35.24 35.24h-183.59v-70.62h183.59c19.43 0 35.24 15.81 35.24 35.25z" fill="#292929"/><path d="m380.94 132.091v53.76c0 48.41-39.37 87.81-87.77 87.81-48.39 0-87.77-39.4-87.77-87.81v-34.48l87.77-9.64z" fill="#ffd1ae"/><path d="m380.94 132.091v53.76c0 48.41-39.37 87.81-87.77 87.81v-131.931z" fill="#ffbd83"/><path d="m407.44 48.63v41.91c0 33.6-27.23 60.83-60.83 60.83h-141.21v-53.94c0-35.24 28.57-63.8 63.8-63.8h123.24c8.29 0 15 6.721 15 15z" fill="#a34f3e"/><path d="m346.61 151.37h-53.44v-117.74h99.27c8.29 0 15 6.72 15 15v41.91c0 33.6-27.23 60.83-60.83 60.83z" fill="#873f2e"/></svg>