<svg height="512" viewBox="0 0 64 64" width="512" xmlns="http://www.w3.org/2000/svg"><path d="m34 31h26v3h-26z" fill="#c6c5ca"/><path d="m36 34h22v12h-22z" fill="#d80027"/><rect fill="#3e3d42" height="8" rx="2" width="4" x="45" y="19"/><rect fill="#3e3d42" height="8" rx="2" transform="matrix(.707 .707 -.707 .707 27.686 -20.841)" width="4" x="37" y="19"/><rect fill="#3e3d42" height="8" rx="2" transform="matrix(-.707 .707 -.707 -.707 110.154 .373)" width="4" x="53" y="19"/><path d="m57 27v3" fill="#c6c5ca"/><path d="m4 31h26v3h-26z" fill="#c6c5ca"/><path d="m6 34h22v12h-22z" fill="#ffda44"/><rect fill="#3e3d42" height="8" rx="2" width="4" x="15" y="19"/><rect fill="#3e3d42" height="8" rx="2" transform="matrix(.707 .707 -.707 .707 18.899 .373)" width="4" x="7" y="19"/><rect fill="#3e3d42" height="8" rx="2" transform="matrix(-.707 .707 -.707 -.707 58.941 21.586)" width="4" x="23" y="19"/><path d="m27 27v3" fill="#c6c5ca"/><g fill="#231f20"><path d="m21 41h-6a1 1 0 0 0 0 2h6a1 1 0 0 0 0-2z"/><path d="m25 41h-1a1 1 0 0 0 0 2h1a1 1 0 0 0 0-2z"/><path d="m51 41h-6a1 1 0 0 0 0 2h6a1 1 0 0 0 0-2z"/><path d="m55 41h-1a1 1 0 0 0 0 2h1a1 1 0 0 0 0-2z"/><path d="m62 45h-3v-10h1a1 1 0 0 0 1-1v-3a1 1 0 0 0 -1-1h-2v-3c0-.015-.008-.027-.008-.042a2.977 2.977 0 0 0 .544-.422 3.005 3.005 0 0 0 0-4.243l-2.829-2.829a3 3 0 1 0 -4.243 4.243l2.829 2.829a2.969 2.969 0 0 0 1.707.837v2.627h-8v-2a.9.9 0 0 0 -.035-.173 3 3 0 0 0 2.035-2.827v-4a3 3 0 0 0 -6 0v4a3 3 0 0 0 2.035 2.827.9.9 0 0 0 -.035.173v2h-8v-2.627a2.978 2.978 0 0 0 1.707-.837l2.829-2.829a3 3 0 1 0 -4.243-4.243l-2.829 2.829a3.005 3.005 0 0 0 0 4.243 2.977 2.977 0 0 0 .544.422c0 .015-.008.027-.008.042v3h-2a1 1 0 0 0 -1 1v3a1 1 0 0 0 1 1h1v10h-6v-10h1a1 1 0 0 0 1-1v-3a1 1 0 0 0 -1-1h-2v-3c0-.015-.008-.027-.008-.042a2.977 2.977 0 0 0 .544-.422 3.005 3.005 0 0 0 0-4.243l-2.829-2.829a3 3 0 0 0 -4.243 4.243l2.829 2.829a2.969 2.969 0 0 0 1.707.837v2.627h-8v-2a.9.9 0 0 0 -.035-.173 3 3 0 0 0 2.035-2.827v-4a3 3 0 0 0 -6 0v4a3 3 0 0 0 2.035 2.827.9.9 0 0 0 -.035.173v2h-8v-2.627a2.978 2.978 0 0 0 1.707-.837l2.829-2.829a3 3 0 1 0 -4.243-4.243l-2.829 2.829a3.005 3.005 0 0 0 0 4.243 2.977 2.977 0 0 0 .544.422c0 .015-.008.027-.008.042v3h-2a1 1 0 0 0 -1 1v3a1 1 0 0 0 1 1h1v10h-3a1 1 0 0 0 0 2h60a1 1 0 0 0 0-2zm-9.121-22.707a1 1 0 0 1 1.414-1.415l2.828 2.829a1 1 0 1 1 -1.414 1.415zm-6.879-1.293a1 1 0 0 1 2 0v4a1 1 0 0 1 -2 0zm-9.122 2.707 2.829-2.828a1 1 0 1 1 1.415 1.414l-2.829 2.828a1 1 0 1 1 -1.415-1.414zm-14-1.414a1 1 0 0 1 1.414-1.415l2.828 2.829a1 1 0 1 1 -1.414 1.415zm-6.878-1.293a1 1 0 0 1 2 0v4a1 1 0 0 1 -2 0zm-9.122 2.707 2.829-2.828a1 1 0 1 1 1.415 1.414l-2.829 2.828a1 1 0 1 1 -1.415-1.414zm28.122 8.293h24v1h-24zm-30 0h24v1h-24zm2 13v-10h20v10zm30 0v-10h20v10z"/></g></svg>