<svg height="512pt" viewBox="0 -2 512.00103 512" width="512pt" xmlns="http://www.w3.org/2000/svg"><path d="m346.867188 147.019531-92.105469 69.75c-6.855469 5.191407-15.753907-3.082031-11.078125-10.292969l38.5-59.457031zm0 0" fill="#a0cafe"/><path d="m490.222656 508.820312h-468.066406c-2.140625 0-3.878906-1.734374-3.878906-3.878906v-116.628906h475.824218v116.628906c0 2.144532-1.734374 3.878906-3.878906 3.878906zm0 0" fill="#d8cecc"/><path d="m495.292969 159.710938h-246.1875c-9.226563 0-16.707031-7.480469-16.707031-16.707032v-126.195312c0-9.226563 7.480468-16.707032 16.707031-16.707032h246.1875c9.226562 0 16.707031 7.480469 16.707031 16.707032v126.195312c0 9.226563-7.480469 16.707032-16.707031 16.707032zm0 0" fill="#c0dbff"/><path d="m227.507812 332.171875c0 11.222656-9.089843 20.316406-20.3125 20.316406h-182.015624c-5.605469 0-10.695313-2.277343-14.367188-5.957031-3.683594-3.675781-5.949219-8.753906-5.949219-14.359375 0-28.4375 12.785157-53.871094 32.917969-70.898437 7.363281-6.226563 15.699219-11.328126 24.75-15.03125 10.84375-4.4375 22.707031-6.875 35.140625-6.875h37.03125c12.433594 0 24.296875 2.449218 35.136719 6.875 9.050781 3.703124 17.390625 8.804687 24.753906 15.042968 1.988281 1.664063 3.902344 3.421875 5.730469 5.265625 16.800781 16.796875 27.183593 40 27.183593 65.621094zm0 0" fill="#bee299"/><path d="m133.875 239.367188c-12.433594 0-24.296875 2.4375-35.136719 6.875-9.050781 3.703124-17.390625 8.804687-24.753906 15.03125-20.128906 17.027343-32.914063 42.460937-32.914063 70.898437 0 5.605469 2.265626 10.683594 5.945313 14.359375 3.671875 3.679688 8.761719 5.957031 14.367187 5.957031h-36.203124c-5.605469 0-10.695313-2.277343-14.367188-5.957031-3.683594-3.675781-5.949219-8.753906-5.949219-14.359375 0-28.4375 12.785157-53.871094 32.917969-70.898437 7.363281-6.226563 15.699219-11.328126 24.75-15.03125 10.84375-4.4375 22.707031-6.875 35.140625-6.875zm0 0" fill="#aedb81"/><path d="m167.925781 245.492188c-.003906-.003907-.003906-.003907-.007812-.003907-6.101563-2.339843-12.511719-4.058593-19.148438-5.0625-3.097656-.476562-6.238281-.792969-9.429687-.941406v21.058594l-20.640625 22.246093c-.007813.003907-.015625.019532-.023438.027344-1.355469 2.242188-4.636719 2.207032-5.929687-.082031l-19.71875-22.191406v-21.058594c-3.816406.183594-7.578125.605469-11.265625 1.246094-6.003907 1.035156-11.816407 2.652343-17.367188 4.785156 0 0-.007812.007813-.015625.007813-9.601562 5.289062-17.867187 15.035156-17.664062 32.933593.042968 3.484375 4.398437 5.066407 6.933594 2.734375l16.882812-12.1875c1.503906-.785156 3.273438-.839844 4.820312-.144531l36.09375 15.714844c2.488282 1.949219 5.980469 1.972656 8.492188.054687l37.085938-15.769531c1.546874-.695313 3.3125-.640625 4.8125.144531l16.886718 12.1875c2.53125 2.332032 6.890625.75 6.933594-2.734375.207031-17.9375-8.097656-27.683593-17.730469-32.964843zm0 0" fill="#8ecb51"/><path d="m123.945312 284.578125v67.910156h-15.515624v-67.910156c0-4.28125 3.476562-7.757813 7.757812-7.757813s7.757812 3.476563 7.757812 7.757813zm0 0" fill="#8ecb51"/><path d="m93.027344 210.785156v49.753906l19.726562 22.199219c1.292969 2.285157 4.570313 2.316407 5.925782.082031 0-.011718.011718-.019531.019531-.03125l20.636719-22.25v-49.753906c-3.863282-.183594-42.664063-.171875-46.308594 0zm0 0" fill="#f2bb88"/><path d="m207.886719 152.75c0 14.457031-11.71875 26.171875-26.175781 26.171875-14.453126 0-26.171876-11.714844-26.171876-26.171875 0-14.453125 11.71875-26.171875 26.171876-26.171875 14.457031 0 26.175781 11.71875 26.175781 26.171875zm0 0" fill="#f2d1a5"/><path d="m163.144531 27.230469h-93.914062c-12.40625 0-22.464844 10.054687-22.464844 22.460937v121.703125c0 37.578125 52.222656 68.042969 69.421875 68.046875 17.199219-.003906 69.421875-30.46875 69.421875-68.046875v-121.703125c0-12.40625-10.058594-22.460937-22.464844-22.460937zm0 0" fill="#f2d1a5"/><path d="m134.289062 234.089844c-7.3125 3.445312-13.796874 5.347656-18.101562 5.347656-17.203125 0-69.417969-30.464844-69.417969-68.042969v-121.695312c0-12.414063 10.054688-22.46875 22.457031-22.46875h36.203126c-12.402344 0-22.457032 10.054687-22.457032 22.46875v121.695312c0 28.1875 29.367188 52.371094 51.316406 62.695313zm0 0" fill="#f2bb88"/><path d="m166.667969 0h-63.324219c-17.878906 0-32.910156 11.433594-37.277344 26.9375-2.332031-.679688-4.8125-1.046875-7.386718-1.046875h-6.601563c-13.769531 0-24.933594 10.488281-24.933594 23.421875v27.804688c0 9.738281 8.402344 17.632812 18.765625 17.632812h12.769532c13.183593 0 23.96875-9.613281 24.867187-21.785156 20.542969 20.878906 56.238281 34.1875 98.441406 33.714844h11.515625c6.476563 0 11.726563-6.265626 11.726563-13.992188v-56.457031c0-20.011719-17.265625-36.230469-38.5625-36.230469zm0 0" fill="#d19a75"/><path d="m196.824219 319.394531h-44.203125c-4.285156 0-7.757813 3.472657-7.757813 7.757813s3.472657 7.757812 7.757813 7.757812h44.203125c4.285156 0 7.757812-3.472656 7.757812-7.757812s-3.472656-7.757813-7.757812-7.757813zm0 0" fill="#8ecb51"/><path d="m79.753906 319.394531h-44.203125c-4.285156 0-7.757812 3.472657-7.757812 7.757813s3.472656 7.757812 7.757812 7.757812h44.203125c4.28125 0 7.757813-3.472656 7.757813-7.757812s-3.476563-7.757813-7.757813-7.757813zm0 0" fill="#8ecb51"/><path d="m205.226562 74.699219v17.988281c0 7.726562-5.242187 13.996094-11.71875 13.996094h-11.523437c-42.203125.464844-77.898437-12.839844-98.441406-33.722656-.890625 12.175781-11.679688 21.785156-24.859375 21.785156h-12.773438c-10.363281 0-18.765625-7.894532-18.765625-17.625v-27.804688c0-6.683594 2.980469-12.714844 7.757813-16.964844v13.613282c0 9.730468 8.402344 17.625 18.765625 17.625h12.773437c13.179688 0 23.96875-9.609375 24.859375-21.785156 20.542969 20.882812 56.238281 34.1875 98.441407 33.710937h11.523437c1.386719 0 2.722656-.289063 3.960937-.816406zm0 0" fill="#c9885b"/><path d="m58.359375 508.820312h-36.203125c-2.140625 0-3.878906-1.734374-3.878906-3.878906v-116.628906h36.203125v116.628906c0 2.144532 1.738281 3.878906 3.878906 3.878906zm0 0" fill="#c8bebc"/><path d="m265.910156 488.34375c0 5.605469 1.910156 10.691406 5.007813 14.363281 3.089843 3.679688 7.367187 5.949219 12.085937 5.949219h153.164063c9.441406 0 17.089843-9.09375 17.089843-20.3125 0-25.628906-8.738281-48.828125-22.871093-65.625-1.546875-1.835938-3.152344-3.597656-4.828125-5.265625-6.191406-6.230469-13.207032-11.328125-20.828125-15.039063-9.113281-4.425781-19.097657-6.875-29.5625-6.875h-31.160157c-10.464843 0-20.449218 2.441407-29.566406 6.875-7.621094 3.710938-14.636718 8.804688-20.828125 15.03125-16.945312 17.023438-27.703125 42.464844-27.703125 70.898438zm0 0" fill="#a0cafe"/><path d="m506.117188 405.183594h-500.230469c-3.25 0-5.88281275-2.632813-5.88281275-5.882813v-40.824219c0-3.246093 2.63281275-5.882812 5.88281275-5.882812h500.230469c3.25 0 5.882812 2.636719 5.882812 5.882812v40.824219c0 3.25-2.632812 5.882813-5.882812 5.882813zm0 0" fill="#ebe0da"/><path d="m42.089844 405.183594h-36.203125c-3.25 0-5.886719-2.636719-5.886719-5.882813v-40.820312c0-3.246094 2.636719-5.882813 5.886719-5.882813h36.203125c-3.25 0-5.886719 2.636719-5.886719 5.882813v40.820312c0 3.246094 2.636719 5.882813 5.886719 5.882813zm0 0" fill="#d8cecc"/><path d="m377.691406 395.585938c-9.546875.351562-18.660156 2.75-27.050781 6.828124-7.621094 3.710938-14.636719 8.800782-20.820313 15.027344-16.945312 17.027344-27.703124 42.472656-27.703124 70.898438 0 5.605468 1.902343 10.695312 5.007812 14.367187 3.082031 3.683594 7.363281 5.949219 12.082031 5.949219h-36.203125c-4.71875 0-9-2.265625-12.082031-5.949219-3.105469-3.671875-5.007813-8.761719-5.007813-14.367187 0-28.425782 10.757813-53.871094 27.699219-70.898438 6.1875-6.226562 13.199219-11.316406 20.824219-15.027344 9.125-4.4375 19.105469-6.878906 29.5625-6.878906h31.167969c.847656 0 1.683593.019532 2.523437.050782zm0 0" fill="#81b8fd"/><path d="m309.730469 308.917969c0 14.457031-11.714844 26.171875-26.171875 26.171875-14.453125 0-26.171875-11.714844-26.171875-26.171875 0-14.453125 11.71875-26.171875 26.171875-26.171875 14.457031 0 26.171875 11.71875 26.171875 26.171875zm0 0" fill="#ffe4c2"/><path d="m461.78125 308.921875c0 14.457031-11.71875 26.171875-26.171875 26.171875s-26.171875-11.714844-26.171875-26.171875c0-14.453125 11.71875-26.171875 26.171875-26.171875s26.171875 11.71875 26.171875 26.171875zm0 0" fill="#ffe4c2"/><path d="m457.601562 376.382812c-23.164062-20.777343-25.28125-46.953124-25.28125-46.953124 0-17.761719 0-33.449219.003907-47.140626.011719-97.3125-145.492188-97.1875-145.480469 0 .003906 13.691407.003906 29.378907.003906 47.140626 0 0-2.117187 26.175781-25.28125 46.953124-3.753906 3.367188-4.140625 9.085938-.796875 12.863282 51.789063 58.464844 141.730469 63.109375 197.632813 0 3.34375-3.777344 2.953125-9.496094-.800782-12.863282zm0 0" fill="#ff956a"/><path d="m387.558594 431.839844c-45.304688 10.054687-93.789063-5.347656-126.785156-42.59375-3.351563-3.777344-2.960938-9.496094.796874-12.859375 23.160157-20.78125 25.28125-46.960938 25.28125-46.960938v-47.136719c-.011718-54.089843 45.046876-78.109374 85.015626-72.007812-26.863282 8.421875-48.832032 31.53125-48.832032 69.296875v47.148437s-2.113281 26.167969-25.28125 46.949219c-3.757812 3.363281-4.140625 9.082031-.796875 12.859375 24.285157 27.421875 56.972657 43 90.601563 45.304688zm0 0" fill="#ff7c48"/><path d="m285.308594 159.710938h-36.203125c-9.226563 0-16.707031-7.480469-16.707031-16.707032v-126.195312c0-9.226563 7.480468-16.707032 16.707031-16.707032h36.203125c-9.226563 0-16.707032 7.480469-16.707032 16.707032v126.195312c0 9.226563 7.480469 16.707032 16.707032 16.707032zm0 0" fill="#a0cafe"/><path d="m269.339844 47.480469h205.71875c4.285156 0 7.757812-3.476563 7.757812-7.761719 0-4.28125-3.472656-7.757812-7.757812-7.757812h-205.71875c-4.285156 0-7.757813 3.476562-7.757813 7.757812 0 4.285156 3.472657 7.761719 7.757813 7.761719zm0 0" fill="#fff5f4"/><path d="m269.339844 87.664062h144.816406c4.289062 0 7.757812-3.472656 7.757812-7.757812s-3.46875-7.757812-7.757812-7.757812h-144.816406c-4.285156 0-7.757813 3.472656-7.757813 7.757812s3.472657 7.757812 7.757813 7.757812zm0 0" fill="#fff5f4"/><path d="m475.058594 72.148438h-29.867188c-4.285156 0-7.757812 3.472656-7.757812 7.757812s3.472656 7.757812 7.757812 7.757812h29.867188c4.285156 0 7.757812-3.472656 7.757812-7.757812s-3.472656-7.757812-7.757812-7.757812zm0 0" fill="#fff5f4"/><path d="m475.058594 112.332031h-205.71875c-4.285156 0-7.757813 3.476563-7.757813 7.757813 0 4.285156 3.472657 7.757812 7.757813 7.757812h205.71875c4.285156 0 7.757812-3.472656 7.757812-7.757812 0-4.28125-3.472656-7.757813-7.757812-7.757813zm0 0" fill="#fff5f4"/><path d="m76.835938 152.746094c0 14.453125-11.71875 26.171875-26.175782 26.171875-14.453125 0-26.171875-11.71875-26.171875-26.171875s11.71875-26.171875 26.171875-26.171875c14.457032 0 26.175782 11.71875 26.175782 26.171875zm0 0" fill="#f2bb88"/><g fill="#c9885b"><path d="m130.03125 166.722656c-4.285156 0-7.757812 3.472656-7.757812 7.757813 0 3.355469-2.730469 6.085937-6.085938 6.085937s-6.085938-2.730468-6.085938-6.085937c0-4.285157-3.476562-7.757813-7.761718-7.757813-4.28125 0-7.757813 3.472656-7.757813 7.757813 0 11.910156 9.691407 21.601562 21.605469 21.601562 11.910156 0 21.601562-9.691406 21.601562-21.601562 0-4.285157-3.472656-7.757813-7.757812-7.757813zm0 0"/><path d="m159.988281 146.367188c0 4.542968-3.683593 8.226562-8.226562 8.226562-4.539063 0-8.222657-3.683594-8.222657-8.226562 0-4.542969 3.683594-8.222657 8.222657-8.222657 4.542969 0 8.226562 3.679688 8.226562 8.222657zm0 0"/><path d="m88.835938 146.367188c0 4.542968-3.683594 8.226562-8.222657 8.226562-4.542969 0-8.226562-3.683594-8.226562-8.226562 0-4.542969 3.683593-8.222657 8.226562-8.222657 4.539063 0 8.222657 3.679688 8.222657 8.222657zm0 0"/><path d="m171.863281 123.511719c-11.933593-7.503907-30.671875-3.882813-32.765625-3.449219-4.191406.875-6.875 4.972656-6.007812 9.164062.863281 4.1875 4.964844 6.890626 9.15625 6.027344 5.585937-1.140625 16.320312-1.773437 21.359375 1.394532 1.28125.804687 2.710937 1.191406 4.121093 1.191406 2.578126 0 5.101563-1.285156 6.574219-3.628906 2.28125-3.628907 1.191407-8.417969-2.4375-10.699219zm0 0"/><path d="m99.289062 129.242188c.875-4.195313-1.816406-8.300782-6.011718-9.175782-2.097656-.4375-20.832032-4.054687-32.765625 3.445313-3.628907 2.28125-4.71875 7.070312-2.4375 10.699219 1.472656 2.34375 3.992187 3.628906 6.574219 3.628906 1.410156 0 2.839843-.386719 4.121093-1.191406 5.035157-3.164063 15.765625-2.535157 21.351563-1.394532 4.1875.871094 8.292968-1.820312 9.167968-6.011718zm0 0"/></g></svg>