<svg id="Layer_3" enable-background="new 0 0 64 64" height="512" viewBox="0 0 64 64" width="512" xmlns="http://www.w3.org/2000/svg"><path d="m2 2h60v50h-60z" fill="#ab927a"/><path d="m40 58h16v4h-16z" fill="#ba9a52"/><path d="m40 58h13v4h-13z" fill="#f8cd6d"/><path d="m42 54h16v4h-16z" fill="#ba9a52"/><path d="m42 54h13v4h-13z" fill="#f8cd6d"/><path d="m42 50h16v4h-16z" fill="#ba9a52"/><path d="m42 50h13v4h-13z" fill="#f8cd6d"/><path d="m40 46h16v4h-16z" fill="#ba9a52"/><path d="m40 46h13v4h-13z" fill="#f8cd6d"/><path d="m41 42h16v4h-16z" fill="#ba9a52"/><path d="m41 42h13v4h-13z" fill="#f8cd6d"/><path d="m13 11 5-5 8 8h-10z" fill="#7ecb92"/><path d="m16 14-5-5-5 5z" fill="#7ecb92"/><path d="m16 24 2-2h2l2 2h2l2 2v2l-2 2h-2l-2-2h-2l-2-2z" fill="#4a92bb"/><path d="m23 52-5-5h-4l-2-2h-2l-2-2h-6v9z" fill="#7ecb92"/><path d="m38 26-2-2v-2l-2-2 2-2h2l2 2h2l2-2h4l4 4v2l-2 2h-2l-2 2h-4l-2 2h-2z" fill="#4a92bb"/><path d="m34 2 6 6v2l4 4h4l2-2h2l2-2h8v-8z" fill="#7ecb92"/><path d="m62 53h-4v-2h3v-48h-58v48h39v2h-40c-.552 0-1-.448-1-1v-50c0-.552.448-1 1-1h60c.552 0 1 .448 1 1v50c0 .552-.448 1-1 1z"/><path d="m16 15h-10c-.404 0-.769-.244-.924-.617-.155-.374-.069-.804.217-1.09l5-5c.391-.391 1.023-.391 1.414 0l5 5c.286.286.372.716.217 1.09-.155.373-.52.617-.924.617zm-7.586-2h5.172l-2.586-2.586z"/><path d="m26 15h-10v-2h7.586l-5.586-5.586-4.293 4.293-1.414-1.414 5-5c.391-.391 1.023-.391 1.414 0l8 8c.286.286.372.716.217 1.09-.155.373-.52.617-.924.617z"/><path d="m48 15h-4c-.265 0-.52-.105-.707-.293l-4-4c-.188-.187-.293-.442-.293-.707v-1.586l-5.707-5.707 1.414-1.414 6 6c.188.187.293.442.293.707v1.586l3.414 3.414h3.172l1.707-1.707c.187-.188.442-.293.707-.293h1.586l1.707-1.707c.187-.188.442-.293.707-.293h8v2h-7.586l-1.707 1.707c-.187.188-.442.293-.707.293h-1.586l-1.707 1.707c-.187.188-.442.293-.707.293z"/><path d="m50.172 33h5.657v2h-5.657z" transform="matrix(.707 -.707 .707 .707 -8.518 47.435)"/><path d="m52 31.172h2v5.657h-2z" transform="matrix(.707 -.707 .707 .707 -8.518 47.435)"/><path d="m22.293 52.707-4.707-4.707h-3.586c-.265 0-.52-.105-.707-.293l-1.707-1.707h-1.586c-.265 0-.52-.105-.707-.293l-1.707-1.707h-5.586v-2h6c.265 0 .52.105.707.293l1.707 1.707h1.586c.265 0 .52.105.707.293l1.707 1.707h3.586c.265 0 .52.105.707.293l5 5z"/><path d="m40 31h-2c-.552 0-1-.448-1-1v-3.586l-1.707-1.707c-.188-.187-.293-.442-.293-.707v-1.586l-1.707-1.707c-.391-.391-.391-1.023 0-1.414l2-2c.187-.188.442-.293.707-.293h2c.265 0 .52.105.707.293l1.707 1.707h1.172l1.707-1.707c.187-.188.442-.293.707-.293h4c.265 0 .52.105.707.293l4 4c.188.187.293.442.293.707v2c0 .265-.105.52-.293.707l-2 2c-.187.188-.442.293-.707.293h-1.586l-1.707 1.707c-.187.188-.442.293-.707.293h-3.586l-1.707 1.707c-.187.188-.442.293-.707.293zm-1-2h.586l1.707-1.707c.187-.188.442-.293.707-.293h3.586l1.707-1.707c.187-.188.442-.293.707-.293h1.586l1.414-1.414v-1.172l-3.414-3.414h-3.172l-1.707 1.707c-.187.188-.442.293-.707.293h-2c-.265 0-.52-.105-.707-.293l-1.707-1.707h-1.172l-1 1 1.293 1.293c.188.187.293.442.293.707v1.586l1.707 1.707c.188.187.293.442.293.707z"/><path d="m56 63h-16c-.552 0-1-.448-1-1v-4c0-.552.448-1 1-1h16c.552 0 1 .448 1 1v4c0 .552-.448 1-1 1zm-15-2h14v-2h-14z"/><path d="m58 59h-16c-.552 0-1-.448-1-1v-4c0-.552.448-1 1-1h16c.552 0 1 .448 1 1v4c0 .552-.448 1-1 1zm-15-2h14v-2h-14z"/><path d="m58 55h-16c-.552 0-1-.448-1-1v-4c0-.552.448-1 1-1h16c.552 0 1 .448 1 1v4c0 .552-.448 1-1 1zm-15-2h14v-2h-14z"/><path d="m56 51h-16c-.552 0-1-.448-1-1v-4c0-.552.448-1 1-1h16c.552 0 1 .448 1 1v4c0 .552-.448 1-1 1zm-15-2h14v-2h-14z"/><path d="m57 47h-16c-.552 0-1-.448-1-1v-4c0-.552.448-1 1-1h16c.552 0 1 .448 1 1v4c0 .552-.448 1-1 1zm-15-2h14v-2h-14z"/><path d="m29 47c-2.206 0-4-1.794-4-4v-6c0-1.103-.897-2-2-2s-2 .897-2 2v.5c0 2.481-2.019 4.5-4.5 4.5s-4.5-2.019-4.5-4.5v-2c0-1.378-1.122-2.5-2.5-2.5-2.481 0-4.5-2.019-4.5-4.5v-11.5h2v11.5c0 1.378 1.122 2.5 2.5 2.5 2.481 0 4.5 2.019 4.5 4.5v2c0 1.378 1.122 2.5 2.5 2.5s2.5-1.122 2.5-2.5v-.5c0-2.206 1.794-4 4-4s4 1.794 4 4v6c0 1.103.897 2 2 2s2-.897 2-2v-3c0-1.654 1.346-3 3-3h1c.551 0 1-.449 1-1 0-1.654 1.346-3 3-3h9v2h-9c-.551 0-1 .449-1 1 0 1.654-1.346 3-3 3h-1c-.551 0-1 .449-1 1v3c0 2.206-1.794 4-4 4z"/><path d="m24 31h-2c-.265 0-.52-.105-.707-.293l-1.707-1.707h-1.586c-.265 0-.52-.105-.707-.293l-2-2c-.188-.187-.293-.442-.293-.707v-2c0-.265.105-.52.293-.707l2-2c.187-.188.442-.293.707-.293h2c.265 0 .52.105.707.293l1.707 1.707h1.586c.265 0 .52.105.707.293l2 2c.188.187.293.442.293.707v2c0 .265-.105.52-.293.707l-2 2c-.187.188-.442.293-.707.293zm-1.586-2h1.172l1.414-1.414v-1.172l-1.414-1.414h-1.586c-.265 0-.52-.105-.707-.293l-1.707-1.707h-1.172l-1.414 1.414v1.172l1.414 1.414h1.586c.265 0 .52.105.707.293z"/></svg>