<?xml version="1.0"?>
<svg xmlns="http://www.w3.org/2000/svg" id="filled_outline" data-name="filled outline" viewBox="0 0 512 512" width="512" height="512"><path d="M136,88,81.89662,111.18716a8.00006,8.00006,0,0,0-3.16346,2.44164l-53.048,68.20454A8,8,0,0,0,24,186.74486V264a8,8,0,0,0,8,8h9.58263a8,8,0,0,0,7.80949-6.26456l14.10252-63.46131a8,8,0,0,1,2.15264-3.92141L80,184l0,0,24,64h96l16-72,52.18028,14.90865a8,8,0,0,0,6.99777-1.29219L332.8,146.4A8,8,0,0,0,336,140V128a8,8,0,0,0-8-8H312l-35.5023,21.30138a8,8,0,0,1-8.76587-.35007l-51.22106-36.58647a8,8,0,0,0-1.07219-.64555L184,88Z" style="fill:#4fbfcb"/><path d="M296,152l16-24h24v16l13.08635,45.80223A8,8,0,0,1,341.39416,200H324.94427a8,8,0,0,1-7.15542-4.42229Z" style="fill:#c69324"/><path d="M152,296h48l15.68929,78.44645A15.99966,15.99966,0,0,1,216,377.58431V480a8,8,0,0,1-8,8h-9.223a8,8,0,0,1-7.89115-6.68481L176.6414,395.84842a16,16,0,0,0-2.9823-6.96962L152,360Z" style="fill:#b0a9a5"/><path d="M104,248v47.27422q0,.72541-.06571,1.44858l-7.83553,86.19088a15.99944,15.99944,0,0,1-.344,2.14918L74.26128,478.20112A8,8,0,0,0,82.05641,488h8.99932a8,8,0,0,0,7.15542-4.42229l45.17127-90.34256a15.99972,15.99972,0,0,0,1.01439-2.55785l21.61671-72.05569a16,16,0,0,1,8.1698-9.71327L200,296V248Z" style="fill:#efe8e0"/><path d="M304,56H283.31371a8,8,0,0,0-5.65686,2.34315l-11.3137,11.3137A8,8,0,0,0,264,75.31371v25.37258a8,8,0,0,0,2.34315,5.65686l11.3137,11.3137A8,8,0,0,0,283.31371,120H304Z" style="fill:#eebf3e"/><rect x="304" y="56" width="64" height="64" style="fill:#cc4c4d"/><path d="M368,120l42.9189,5.36486a80,80,0,0,1,38.07722,15.38223L461.86667,150.4a8,8,0,0,0,4.8,1.6H480a8,8,0,0,0,8-8V32a8,8,0,0,0-8-8H466.66667a8,8,0,0,0-4.8,1.6l-12.87055,9.65291A80,80,0,0,1,410.9189,50.63514L368,56" style="fill:#eebf3e"/><path d="M24,224v40a8.00008,8.00008,0,0,0,8,8h9.58252a8.00044,8.00044,0,0,0,7.80957-6.26465L58.6665,224Z" style="fill:#f5c99d"/><path d="M328,120H312l-24.61572,14.769L304,168l28.7998-21.6001A7.99927,7.99927,0,0,0,336,140V128A7.99977,7.99977,0,0,0,328,120Z" style="fill:#f5c99d"/><path d="M136,56h48a0,0,0,0,1,0,0V80a24,24,0,0,1-24,24h0a24,24,0,0,1-24-24V56A0,0,0,0,1,136,56Z" style="fill:#f5c99d"/><path d="M144,24h32a8,8,0,0,1,8,8V56a0,0,0,0,1,0,0H136a0,0,0,0,1,0,0V32A8,8,0,0,1,144,24Z" style="fill:#eebf3e"/><path d="M480,16H466.668a16.06933,16.06933,0,0,0-9.59766,3.20312l-12.875,9.64844a72.05571,72.05571,0,0,1-34.26953,13.84375L367.50781,48H283.3125A15.89068,15.89068,0,0,0,272,52.6875L260.6875,64A16.09842,16.09842,0,0,0,256,75.3125v25.375A16.09842,16.09842,0,0,0,260.6875,112L272,123.3125a15.87967,15.87967,0,0,0,11.14746,4.67139l-10.76855,6.46142L221.15625,97.85156a16.29036,16.29036,0,0,0-2.14063-1.28906L191.70605,82.90771C191.79541,81.93506,192,80.99561,192,80V32a16.01833,16.01833,0,0,0-16-16H144a16.01833,16.01833,0,0,0-16,16V80c0,.89453.19189,1.73633.26416,2.61279L78.76172,103.82812a16.04985,16.04985,0,0,0-6.34375,4.88282L19.375,176.92188A16.03255,16.03255,0,0,0,16,186.74219V264a16.01833,16.01833,0,0,0,16,16h9.582a15.9,15.9,0,0,0,15.61719-12.53125l14.10547-63.46094,5.56494-5.56494L95.999,249.44629,95.96484,296l-7.83593,86.1875a7.36589,7.36589,0,0,1-.17188,1.07812L66.46484,476.40625A16.0004,16.0004,0,0,0,82.05469,496h9a15.91514,15.91514,0,0,0,14.3125-8.84375l45.17187-90.34375a25.13723,25.13723,0,0,0,1.52344-3.83594l4.19141-13.9751L167.25,393.66406a8.1328,8.1328,0,0,1,1.5,3.5L182.99609,482.625A15.94162,15.94162,0,0,0,198.77734,496H208a16.01833,16.01833,0,0,0,16-16V377.58594a23.78878,23.78878,0,0,0-.46875-4.71094l-15.375-76.89844A8.02942,8.02942,0,0,1,208,294.41406V248.87988l13.96533-62.85205,44.01514,12.57373a16.069,16.069,0,0,0,14-2.58594l21.1499-15.86425,9.50244,19.00488A15.91514,15.91514,0,0,0,324.94531,208h16.44922a15.99868,15.99868,0,0,0,15.38281-20.39062L343.75879,142.04A15.61782,15.61782,0,0,0,344,140V128h23.50781l42.418,5.30469a72.0855,72.0855,0,0,1,34.27344,13.84375l12.86328,9.64844A16.10965,16.10965,0,0,0,466.668,160H480a16.01833,16.01833,0,0,0,16-16V32A16.01833,16.01833,0,0,0,480,16ZM272,75.3125,283.3125,64H296v48H283.3125L272,100.6875ZM144,32h32V48H144Zm32,32V80a16,16,0,0,1-32,0V64ZM32,264V232H48.69482L41.582,264ZM136.22656,389.65625,91.05469,480h-8.9961l21.49219-93.14062a24.65994,24.65994,0,0,0,.51563-3.21876l7.83593-86.21093c.0625-.71875.09766-1.4375.09766-2.15625V256h80v35.0542L170.60156,301.75a24.14871,24.14871,0,0,0-12.2539,14.57812l-21.60547,72.03126A7.73137,7.73137,0,0,1,136.22656,389.65625ZM208,480h-9.22266l-14.24609-85.46094a24.16859,24.16859,0,0,0-4.47266-10.46094L161.96582,359.9585l11.70606-39.02881a8.05381,8.05381,0,0,1,4.08984-4.86719l16.44922-8.22363,13.63281,68.18457A8.02942,8.02942,0,0,1,208,377.58594Zm62.37891-296.78906L225.44336,170.374l3.94726-17.76464-15.61718-3.46876L193.582,240H109.543L89.30078,186.01172l20.35547-20.35547-11.3125-11.3125L59.99219,192.69531a15.93191,15.93191,0,0,0-4.30469,7.84375L52.251,216H32V186.75l53.05078-68.21094,48.37988-20.73535a31.9386,31.9386,0,0,0,52.90528.30908L211.86328,110.875,263.082,147.46094a16.00306,16.00306,0,0,0,17.53125.70312l3.47949-2.08789,9.76416,19.52832ZM324.94531,192l-10.8042-21.6084L331.501,157.37012,341.39453,192ZM328,140l-21.13135,15.84668-9.01416-18.02881L314.21484,128H328Zm32-28H312V64h48Zm120,32H466.66406l-12.86718-9.64844a88.08366,88.08366,0,0,0-41.88672-16.92187L376,112.939V63.061l35.91016-4.49073A88.05387,88.05387,0,0,0,453.793,41.64844L466.668,32H480Z"/></svg>
